<mxfile host="app.diagrams.net" modified="2023-11-04T11:48:10.631Z" agent="Mozilla/5.0 (Macintosh; Intel Mac OS X 10_15_7) AppleWebKit/537.36 (KHTML, like Gecko) Chrome/117.0.0.0 Safari/537.36" version="22.0.8" etag="sALeIwmIQUaI2jyU0BfP" type="github">
  <diagram name="Page-1" id="jE4EsA_-0Xs-15K_kZY5">
    <mxGraphModel>
      <root>
        <mxCell id="0" />
        <mxCell id="1" parent="0" />
      </root>
    </mxGraphModel>
  </diagram>
</mxfile>
